/* XPM */
static char * hslider_xpm[] = {
"33 16 176 2",
"  	c None",
". 	c #4D4D49",
"+ 	c #6B6B65",
"@ 	c #7B7B74",
"# 	c #7D7D76",
"$ 	c #7F7F78",
"% 	c #818179",
"& 	c #82827B",
"* 	c #83837C",
"= 	c #85857D",
"- 	c #86867F",
"; 	c #878780",
"> 	c #898981",
", 	c #8A8A82",
"' 	c #8B8B83",
") 	c #8C8C84",
"! 	c #8D8D85",
"~ 	c #8E8E86",
"{ 	c #8F8F87",
"] 	c #909088",
"^ 	c #919189",
"/ 	c #929289",
"( 	c #92928A",
"_ 	c #93938B",
": 	c #94948C",
"< 	c #97978F",
"[ 	c #999991",
"} 	c #454541",
"| 	c #484844",
"1 	c #60605A",
"2 	c #A4A49B",
"3 	c #A5A59D",
"4 	c #A3A39A",
"5 	c #A1A199",
"6 	c #A1A198",
"7 	c #A0A097",
"8 	c #9F9F97",
"9 	c #9F9F96",
"0 	c #9E9E96",
"a 	c #434340",
"b 	c #9D9D95",
"c 	c #9D9D94",
"d 	c #9B9B93",
"e 	c #989890",
"f 	c #95958D",
"g 	c #B0B0A8",
"h 	c #50504B",
"i 	c #BEBEB8",
"j 	c #B6B6AE",
"k 	c #BDBDB5",
"l 	c #C5C5BD",
"m 	c #CACAC3",
"n 	c #CECEC6",
"o 	c #D0D0C8",
"p 	c #D2D2CA",
"q 	c #D2D2CB",
"r 	c #D1D1CA",
"s 	c #A7A7A2",
"t 	c #323232",
"u 	c #A1A19C",
"v 	c #C7C7C1",
"w 	c #C4C4BE",
"x 	c #C0C0BA",
"y 	c #BABAB3",
"z 	c #B3B3AD",
"A 	c #AAAAA4",
"B 	c #9F9F9A",
"C 	c #94948F",
"D 	c #878781",
"E 	c #858580",
"F 	c #C8C8C1",
"G 	c #A0A098",
"H 	c #BDBDB4",
"I 	c #C4C4BC",
"J 	c #CACAC2",
"K 	c #333333",
"L 	c #A1A19D",
"M 	c #BABAB4",
"N 	c #AAAAA5",
"O 	c #878782",
"P 	c #9E9E95",
"Q 	c #B6B6AD",
"R 	c #BCBCB4",
"S 	c #A0A09A",
"T 	c #B5B5AD",
"U 	c #CDCDC6",
"V 	c #C7C7C0",
"W 	c #9C9C93",
"X 	c #B5B5AC",
"Y 	c #BBBBB3",
"Z 	c #C3C3BB",
"` 	c #C9C9C1",
" .	c #CDCDC5",
"..	c #CFCFC8",
"+.	c #D0D0C9",
"@.	c #A6A6A1",
"#.	c #9A9A92",
"$.	c #B4B4AC",
"%.	c #CFCFC7",
"&.	c #D1D1C9",
"*.	c #C4C4BD",
"=.	c #B9B9B3",
"-.	c #C6C6C0",
";.	c #999990",
">.	c #B3B3AB",
",.	c #BABAB2",
"'.	c #C2C2BA",
").	c #CCCCC5",
"!.	c #C0C0B9",
"~.	c #C6C6BF",
"{.	c #98988F",
"].	c #C8C8C0",
"^.	c #CCCCC4",
"/.	c #CECEC7",
"(.	c #CFCFC9",
"_.	c #C3C3BD",
":.	c #BFBFB9",
"<.	c #B2B2AD",
"[.	c #85857F",
"}.	c #96968E",
"|.	c #BEBEB7",
"1.	c #B2B2AB",
"2.	c #B9B9B1",
"3.	c #C1C1B9",
"4.	c #CBCBC4",
"5.	c #A6A6A0",
"6.	c #A0A09B",
"7.	c #B2B2AC",
"8.	c #C5C5BF",
"9.	c #BDBDB7",
"0.	c #B2B2AA",
"a.	c #C7C7BF",
"b.	c #CBCBC3",
"c.	c #A5A5A0",
"d.	c #C3C3BC",
"e.	c #BFBFB8",
"f.	c #B8B8B2",
"g.	c #C5C5BE",
"h.	c #94948B",
"i.	c #B1B1A9",
"j.	c #B8B8B0",
"k.	c #C0C0B8",
"l.	c #C2C2BC",
"m.	c #84847F",
"n.	c #93938A",
"o.	c #6E6E6A",
"p.	c #696964",
"q.	c #666661",
"r.	c #656560",
"s.	c #64645F",
"t.	c #62625D",
"u.	c #60605B",
"v.	c #5F5F5A",
"w.	c #5D5D59",
"x.	c #5C5C58",
"y.	c #5B5B57",
"z.	c #4B4B47",
"A.	c #1D1D1C",
"B.	c #5A5A56",
"C.	c #5B5B56",
"D.	c #5C5C57",
"E.	c #71716C",
"F.	c #81817A",
"G.	c #42423E",
"H.	c #40403C",
"I.	c #3C3C38",
"J.	c #3C3C39",
"K.	c #3D3D3A",
"L.	c #3E3E3A",
"M.	c #3E3E3B",
"N.	c #3F3F3B",
"O.	c #3F3F3C",
"P.	c #40403D",
"Q.	c #41413D",
"R.	c #3D3D39",
"S.	c #575751",
"  . . + @ # $ % & * = - ; > , ' ) ! ~ { { ] ^ / ( ( _ _ _ _ : < [ ",
"  . . + @ # $ % & * = - ; > , ' ) ! ~ { { ] ^ / ( ( _ _ _ _ : < [ ",
"  } } | 1 [ 2 3 2 4 5 6 7 8 9 0 ; a a ; 0 0 0 b c d e f { { g 4 6 ",
"  } } | h i j k l m n o p q q r s t t u v w x y z A B C D E F G 7 ",
"  } } | h i j H I J n o r q q r s K t L v w x M z N B C O E F 9 P ",
"  } } | h i Q R I J n o r q q r s K t L v w x M z N S C O E v P c ",
"  } } | h i T R I J U o r q p r s K t L v w x M z N S C O E V c W ",
"  } } | h i X Y Z `  ...r p r +.@.K K u v w x M z N S C O E V W #.",
"  } } | h i $.Y Z `  .%.&.r r +.@.K K u V *.x =.z N S C O E -.#.;.",
"  } } | h i >.,.'.F ).%.+.r r +.@.K t u V *.!.=.z N S C O E ~.[ {.",
"  } } | h i >.,.'.].^./.o +.+.(.@.K t u -._.:.=.<.N S C O [.~.e }.",
"  } } | h |.1.2.3.V 4.n ..+.+...5.K t 6.-._.:.=.7.A B C O [.8.< f ",
"  } } | h 9.0.2.3.a.b.U %.o ....c.t t 6.~.d.e.f.7.A B C O [.g.}.h.",
"  } } | h 9.i.j.k.~.m  ./...../.c.t t 6.8.l.i f.7.A B C D m.*.f n.",
"  } } | . o.p.q.r.s.t.u.v.w.x.y.z.A.A.z.B.C.y.y.D.D.D.y.B.x.E.F.^ ",
"  G.G.H.I.I.J.K.L.M.N.O.H.P.Q.Q.Q.Q.Q.Q.Q.Q.P.H.O.N.M.L.K.J.I.R.S."};
